<?xml version="1.0" encoding="UTF-8"?>
<svg id="Layer_1" data-name="Layer 1" xmlns="http://www.w3.org/2000/svg" xmlns:xlink="http://www.w3.org/1999/xlink" viewBox="0 0 1080 1080">
  <defs>
    <style>
      .cls-1 {
        fill: url(#linear-gradient);
      }

      .cls-2 {
        fill: #e79f0d;
      }

      .cls-3 {
        fill: url(#linear-gradient-2);
      }
    </style>
    <linearGradient id="linear-gradient" x1="445.01" y1="186.7" x2="139.4" y2="484.81" gradientUnits="userSpaceOnUse">
      <stop offset="0" stop-color="#0b4f6c"/>
      <stop offset=".81" stop-color="#157f47"/>
      <stop offset="1" stop-color="#188c3e"/>
    </linearGradient>
    <linearGradient id="linear-gradient-2" x1="631.35" y1="897.66" x2="936.2" y2="598.77" xlink:href="#linear-gradient"/>
  </defs>
  <path class="cls-2" d="M85.07,650.57v-.11l.73-175.7c.03-10.6,6.37-20.09,16.15-24.17,9.8-4.08,20.99-1.92,28.54,5.51l366.67,360.56c9.01,8.86,14.18,21.18,14.18,33.82v203.79c0,6.11-3.67,11.62-9.31,13.98-1.89,.79-3.87,1.18-5.84,1.18-3.91,0-7.75-1.51-10.64-4.36L99.15,684.08l-14.08-13.77v-19.74"/>
  <path class="cls-1" d="M85.03,632.15l.94-194.94h0c.09-17.46,6.97-33.84,19.37-46.11L485.1,15.14c4.52-4.47,11.28-5.8,17.16-3.35,5.88,2.45,9.7,8.19,9.7,14.55V222.89c0,17.41-7.12,34.39-19.54,46.58L111.84,643.47l-26.77,26.8-.04-38.12Z"/>
  <path class="cls-2" d="M994.93,429.43v.11l-.73,175.7c-.03,10.6-6.37,20.09-16.15,24.17-9.8,4.08-20.99,1.92-28.54-5.51l-366.67-360.56c-9.01-8.86-14.18-21.18-14.18-33.82V25.73c0-6.11,3.67-11.62,9.31-13.98,1.89-.79,3.87-1.18,5.84-1.18,3.91,0,7.75,1.51,10.64,4.36l386.4,380.98,14.08,13.77v19.74"/>
  <path class="cls-3" d="M994.97,447.85l-.94,194.94h0c-.09,17.46-6.97,33.84-19.37,46.11l-379.77,375.96c-4.52,4.47-11.28,5.8-17.16,3.35-5.88-2.45-9.7-8.19-9.7-14.55v-196.55c0-17.41,7.12-34.39,19.54-46.58l380.58-374,26.77-26.8,.04,38.12Z"/>
</svg>